<svg xmlns="http://www.w3.org/2000/svg" version="1.1" xmlns:xlink="http://www.w3.org/1999/xlink" xmlns:svgjs="http://svgjs.dev/svgjs" width="2000" height="2242" viewBox="0 0 2000 2242"><g transform="matrix(1,0,0,1,-3.115264797507507,0)"><svg viewBox="0 0 321 360" data-background-color="#a437db" preserveAspectRatio="xMidYMid meet" height="2242" width="2000" xmlns="http://www.w3.org/2000/svg" xmlns:xlink="http://www.w3.org/1999/xlink"><g id="tight-bounds" transform="matrix(1,0,0,1,0.5,0)"><svg viewBox="0 0 320 360" height="360" width="320"><g><svg></svg></g><g><svg viewBox="0 0 320 360" height="360" width="320"><g><path d="M20.961 227.22l3.726 4.658-1.863-6.056c-0.466-2.795-3.726 0.466-1.863 1.398M25.153 224.425c1.397 2.329 2.795 4.658 2.795 6.987 0 3.261 2.795 4.658 5.123 5.589-3.261-3.726-5.124-13.974-7.918-12.576M204.017 26.929c7.918 0 15.371-0.932 23.756 0.931 20.495 5.124 37.729 15.371 49.374 29.811l32.606 52.169c1.397 13.042 4.192 27.482 3.726 43.319 3.261 0 2.795-4.658 6.521-5.59-3.726 9.316-5.59 20.961-6.521 34.469-2.329-7.453 0-18.632 0.466-24.687-3.261 5.124-5.124 1.397-5.124-0.932 0.466-3.726-1.397-3.261-2.795-4.658-5.124-4.658-8.384-9.782-12.11-17.7 2.329-6.055 2.795-14.905-4.658-19.563-2.329-1.397-5.124-3.726-6.521-7.453-1.863-5.124-5.124-11.179-4.193-19.097 0.466-2.329-6.987 5.124-11.179 1.863-18.166-12.576-36.332-27.016-58.224-39.127-11.645 0-20.029-4.192-24.221-9.316-3.726-4.658-0.932-10.713 4.658-11.179 3.261 0 6.987-0.932 9.782 0.932 0.466-1.863 2.329-4.192 4.657-4.192M157.904 16.215l0.932 0.466c4.658 0.932 6.987 7.453 12.11 5.124 0 3.261 0.466 6.521-0.466 8.85-1.397 3.726-5.59 3.726-8.85 3.726-31.208-1.863-49.374 11.179-68.471 22.358-5.124 3.261-10.713 5.59-14.906 9.782-20.029 18.632-41.921 35.866-47.045 70.335l-4.192 38.195c-0.466 4.192-5.124 8.384-4.192 13.508l3.26 22.824c-3.261-3.261-5.124 0.932-4.192 2.795 0.466 1.397 2.329 6.055 5.124 1.863 3.726 6.987 7.453 20.495 12.576 26.55 15.837 18.632 36.332 35.4 53.101 52.169 4.192-0.932 7.453-0.932 8.384-3.727 1.397 2.795-1.397 5.59-3.726 6.056 7.453 4.658 15.837 8.85 27.016 9.781 14.44 0.932 27.948 3.261 40.524 6.522 6.521-1.863 13.042-2.795 20.029-3.261 2.329 0 3.726-3.726 6.521-4.658l0.466-4.658c2.795 4.192 2.329-1.397 0.466-4.192 3.261 2.795 4.192 5.124 5.589 6.987 0-1.397 3.726-6.521 3.727-0.466l0.931-6.055c1.397-0.932 1.863 5.124 3.261 0.931 1.397-4.192 4.192-0.932 6.987-2.329-0.932 1.863-0.466 5.59 2.794 3.261l3.727-3.261c2.329 5.59 6.055 3.261 7.918 2.329 20.495-13.042 40.99-28.413 60.553-43.784l-0.466 6.055 2.329-7.453c2.329 2.329 4.192 0.466 5.124-0.931 2.795-4.658 6.521-9.316 12.577-13.508-7.453 20.029-16.303 35.866-27.482 48.908l-4.658 5.59c0 3.261-0.932 7.453-4.658 7.918-1.863 0.466-5.59-0.932-8.384 1.863-1.397 1.863 3.261 5.59-0.466 2.795-3.261-2.329-6.521 0-10.248 0.932-2.795 0.932 1.863 3.726 2.795 5.589 0.932 1.863 1.863 3.726 1.398 6.056l-5.124-5.59c-6.055 3.261-9.782 9.316-14.906 13.974-2.329 1.863-1.397 5.124-1.397 7.918-3.261 0-6.987-0.932-8.85 0.932-1.397 1.863-0.932 4.658-0.932 7.453-4.658-0.466-5.124-7.453-9.315-6.056-4.192 0.932-8.85 1.397-12.577 3.727 2.795 5.59-4.658 2.329-3.726 3.26-6.987-4.192-13.042-7.453-20.495-4.658-15.837-5.124-35.4-2.795-49.84-0.931 0-2.329 0.466-4.658-0.466-5.124-0.932 2.329-3.726 1.397-3.26 1.397-8.85-6.055-17.7-9.782-27.016-14.905-8.384 0.932-16.303-3.261-18.632-5.59-6.521-6.055-13.974-2.795-20.029-4.192-13.042-3.261-17.7-16.769-19.098-26.084-0.932-4.658-4.658-6.521-6.055-6.056-6.055-19.563-15.371-37.263-22.824-55.429-1.863-4.658-1.397-9.316-1.397-14.44 2.329 0.932 4.658 0.466 4.192-2.794-2.329-15.371-7.918-27.016-13.974-38.195 3.261-15.837 3.726-34.469 11.179-48.443 6.521-12.576 18.632-19.098 27.016-29.811 2.795-3.726 2.795-8.85 5.59-12.11 9.316-9.316 18.632-19.098 28.879-27.482 4.658-3.726 10.247 0 17.234-1.397 2.329-8.384 11.645-15.837 20.495-13.508 3.726 0.932 11.179-8.85 13.508-9.782 3.726-1.397 1.863 3.726 1.863 6.987 8.85-6.987 20.961-10.713 32.14-14.906" fill="#ffffff" fill-rule="nonzero" stroke="none" stroke-width="1" stroke-linecap="butt" stroke-linejoin="miter" stroke-miterlimit="10" stroke-dasharray="" stroke-dashoffset="0" font-family="none" font-weight="none" font-size="none" text-anchor="none" style="mix-blend-mode: normal" data-fill-palette-color="tertiary"></path></g><g transform="matrix(1,0,0,1,64,114.40456515472742)"><svg viewBox="0 0 192 131.19086969054516" height="131.19086969054516" width="192"><g><svg viewBox="0 0 192 131.19086969054516" height="131.19086969054516" width="192"><g><svg viewBox="0 0 192 131.19086969054516" height="131.19086969054516" width="192"><g><svg viewBox="0 0 192 131.19086969054516" height="131.19086969054516" width="192"><g id="textblocktransform"><svg viewBox="0 0 192 131.19086969054516" height="131.19086969054516" width="192" id="textblock"><g><svg viewBox="0 0 192 86.36214740673338" height="86.36214740673338" width="192"><g transform="matrix(1,0,0,1,0,0)"><svg width="192" viewBox="3.25 -35.45 80.49 36.21" height="86.36214740673338" data-palette-color="#ffffff"><path d="M31.3-17.5L31.3-17.5Q31.3-15.09 30.68-12.85 30.05-10.62 28.91-8.68 27.76-6.74 26.17-5.14 24.58-3.54 22.63-2.39 20.68-1.25 18.44-0.62 16.21 0 13.79 0L13.79 0 3.25 0 3.25-35.01 13.79-35.01Q16.21-35.01 18.44-34.39 20.68-33.76 22.63-32.62 24.58-31.47 26.17-29.87 27.76-28.27 28.91-26.33 30.05-24.39 30.68-22.16 31.3-19.92 31.3-17.5ZM24.29-17.5L24.29-17.5Q24.29-19.68 23.47-21.58 22.66-23.49 21.23-24.91 19.8-26.34 17.88-27.17 15.97-28 13.79-28L13.79-28 10.3-28 10.3-7.01 13.79-7.01Q15.97-7.01 17.88-7.82 19.8-8.64 21.23-10.07 22.66-11.5 23.47-13.42 24.29-15.33 24.29-17.5ZM42.94-35.01L42.94 0 35.94 0 35.94-35.01 42.94-35.01ZM83.74-17.36L83.74-17.36Q83.74-14.87 83.09-12.56 82.44-10.25 81.27-8.24 80.1-6.23 78.44-4.57 76.78-2.91 74.78-1.72 72.77-0.54 70.45 0.11 68.13 0.76 65.64 0.76L65.64 0.76Q63.15 0.76 60.85 0.11 58.54-0.54 56.53-1.72 54.51-2.91 52.85-4.57 51.19-6.23 50.01-8.24 48.82-10.25 48.18-12.56 47.53-14.87 47.53-17.36L47.53-17.36Q47.53-19.85 48.18-22.17 48.82-24.49 50.01-26.49 51.19-28.49 52.85-30.15 54.51-31.81 56.53-32.98 58.54-34.16 60.85-34.8 63.15-35.45 65.64-35.45L65.64-35.45Q68.13-35.45 70.45-34.8 72.77-34.16 74.78-32.98 76.78-31.81 78.44-30.15 80.1-28.49 81.27-26.49 82.44-24.49 83.09-22.17 83.74-19.85 83.74-17.36ZM76.78-17.36L76.78-17.36Q76.78-19.65 75.9-21.69 75.02-23.73 73.52-25.23 72.02-26.73 69.98-27.61 67.94-28.49 65.64-28.49L65.64-28.49Q63.33-28.49 61.3-27.61 59.27-26.73 57.76-25.23 56.25-23.73 55.37-21.69 54.49-19.65 54.49-17.36L54.49-17.36Q54.49-15.06 55.37-13.05 56.25-11.04 57.76-9.52 59.27-8.01 61.3-7.13 63.33-6.25 65.64-6.25L65.64-6.25Q67.94-6.25 69.98-7.13 72.02-8.01 73.52-9.52 75.02-11.04 75.9-13.05 76.78-15.06 76.78-17.36Z" opacity="1" transform="matrix(1,0,0,1,0,0)" fill="#ffffff" class="wordmark-text-0" data-fill-palette-color="primary" id="text-0"></path></svg></g></svg></g><g transform="matrix(1,0,0,1,80.73600000000002,106.75017771792537)"><svg viewBox="0 0 111.26399999999998 24.440691972619785" height="24.440691972619785" width="111.26399999999998"><g transform="matrix(1,0,0,1,0,0)"><svg width="111.26399999999998" viewBox="0.6 -34.55 160.69 35.3" height="24.440691972619785" data-palette-color="#ffffff"><path d="M22-26.45L22-22.2 19.2-22.2 17.85-11.95 20.5-11.95 20.5-7.75 17.3-7.75 16.3 0 11.4 0 12.4-7.75 7.7-7.75 6.7 0 1.85 0 2.85-7.75 0.6-7.75 0.6-11.95 3.4-11.95 4.75-22.2 2.1-22.2 2.1-26.45 5.3-26.45 6.25-33.65 11.15-33.65 10.2-26.45 14.9-26.45 15.85-33.65 20.7-33.65 19.75-26.45 22-26.45ZM8.3-11.95L13-11.95 14.35-22.2 9.65-22.2 8.3-11.95ZM47.55 0L41.1 0 39.4-8.1 30.5-8.1 28.85 0 22.5 0 31.2-34.55 38.9-34.55 47.55 0ZM34.95-29.7L31.5-12.9 38.45-12.9 34.95-29.7ZM60.05-34.25Q65.1-34.25 67.7-29.9 70.3-25.55 70.3-16.8L70.3-16.8Q70.3 0.75 60.05 0.75L60.05 0.75Q49.7 0.75 49.7-16.8L49.7-16.8Q49.7-34.25 60.05-34.25L60.05-34.25ZM60.05-29.6Q58.6-29.6 57.72-28.48 56.85-27.35 56.42-24.58 56-21.8 56-16.8L56-16.8Q56-11.75 56.42-8.97 56.85-6.2 57.72-5.08 58.6-3.95 60.05-3.95L60.05-3.95Q61.5-3.95 62.35-5.08 63.2-6.2 63.6-8.97 64-11.75 64-16.8L64-16.8Q64-21.85 63.6-24.6 63.2-27.35 62.35-28.48 61.5-29.6 60.05-29.6L60.05-29.6ZM81.84-34.25Q84.79-34.25 86.94-33.05 89.09-31.85 90.19-29.78 91.29-27.7 91.29-25.1L91.29-25.1Q91.29-22.2 90.29-19.6 89.29-17 86.94-13.68 84.59-10.35 79.99-4.9L79.99-4.9 91.89-4.9 91.24 0 73.44 0 73.44-4.55Q78.39-10.75 80.77-14.13 83.14-17.5 84.07-19.85 84.99-22.2 84.99-24.75L84.99-24.75Q84.99-27.05 83.99-28.23 82.99-29.4 81.24-29.4L81.24-29.4Q79.79-29.4 78.67-28.63 77.54-27.85 76.19-26.05L76.19-26.05 72.54-28.8Q76.09-34.25 81.84-34.25L81.84-34.25ZM105.79-34.25Q110.84-34.25 113.44-29.9 116.04-25.55 116.04-16.8L116.04-16.8Q116.04 0.75 105.79 0.75L105.79 0.75Q95.44 0.75 95.44-16.8L95.44-16.8Q95.44-34.25 105.79-34.25L105.79-34.25ZM105.79-29.6Q104.34-29.6 103.47-28.48 102.59-27.35 102.17-24.58 101.74-21.8 101.74-16.8L101.74-16.8Q101.74-11.75 102.17-8.97 102.59-6.2 103.47-5.08 104.34-3.95 105.79-3.95L105.79-3.95Q107.24-3.95 108.09-5.08 108.94-6.2 109.34-8.97 109.74-11.75 109.74-16.8L109.74-16.8Q109.74-21.85 109.34-24.6 108.94-27.35 108.09-28.48 107.24-29.6 105.79-29.6L105.79-29.6ZM127.64 0L121.29 0 121.29-34.55 137.99-34.55 137.29-29.8 127.64-29.8 127.64-19.25 136.04-19.25 136.04-14.5 127.64-14.5 127.64 0ZM151.04-34.25Q156.09-34.25 158.69-29.9 161.29-25.55 161.29-16.8L161.29-16.8Q161.29 0.75 151.04 0.75L151.04 0.75Q140.69 0.75 140.69-16.8L140.69-16.8Q140.69-34.25 151.04-34.25L151.04-34.25ZM151.04-29.6Q149.59-29.6 148.71-28.48 147.84-27.35 147.41-24.58 146.99-21.8 146.99-16.8L146.99-16.8Q146.99-11.75 147.41-8.97 147.84-6.2 148.71-5.08 149.59-3.95 151.04-3.95L151.04-3.95Q152.49-3.95 153.34-5.08 154.19-6.2 154.59-8.97 154.99-11.75 154.99-16.8L154.99-16.8Q154.99-21.85 154.59-24.6 154.19-27.35 153.34-28.48 152.49-29.6 151.04-29.6L151.04-29.6Z" opacity="1" transform="matrix(1,0,0,1,0,0)" fill="#ffffff" class="slogan-text-1" data-fill-palette-color="secondary" id="text-1"></path></svg></g></svg></g></svg></g></svg></g></svg></g></svg></g></svg></g></svg></g><defs></defs></svg><rect width="320" height="360" fill="none" stroke="none" visibility="hidden"></rect></g></svg></g></svg>